HIERARCHY
ROOT Hips
{
	OFFSET 0.000000 105.850000 0.000000
	CHANNELS 6 Xposition Yposition Zposition Yrotation Xrotation Zrotation
	JOINT RightUpLeg
	{
		OFFSET -11.500000 -1.850000 0.000000
		CHANNELS 3 Yrotation Xrotation Zrotation
		JOINT RightLeg
		{
			OFFSET 0.000000 -48.000000 0.000000
			CHANNELS 1 Xrotation
			JOINT RightFoot
			{
				OFFSET 0.000000 -48.000000 0.000000
				CHANNELS 3 Yrotation Xrotation Zrotation
				End Site
				{
					OFFSET 0.000000 -8.000000 19.600000
				}
			}
		}
	}
	JOINT LeftUpLeg
	{
		OFFSET 11.500000 -1.850000 0.000000
		CHANNELS 3 Yrotation Xrotation Zrotation
		JOINT LeftLeg
		{
			OFFSET 0.000000 -48.000000 0.000000
			CHANNELS 1 Xrotation
			JOINT LeftFoot
			{
				OFFSET 0.000000 -48.000000 0.000000
				CHANNELS 3 Yrotation Xrotation Zrotation
				End Site
				{
					OFFSET 0.000000 -8.000000 19.600000
				}
			}
		}
	}
	JOINT Spine
	{
		OFFSET 0.000000 16.654000 0.000000
		CHANNELS 3 Yrotation Xrotation Zrotation
		JOINT Spine1
		{
			OFFSET 0.000000 11.312000 0.000000
			CHANNELS 3 Yrotation Xrotation Zrotation
			JOINT Spine2
			{
				OFFSET 0.000000 11.780000 0.000000
				CHANNELS 3 Yrotation Xrotation Zrotation
				JOINT Spine3
				{
					OFFSET 0.000000 11.312000 0.000000
					CHANNELS 3 Yrotation Xrotation Zrotation
					JOINT Neck
					{
						OFFSET 0.000000 12.091000 0.000000
						CHANNELS 3 Yrotation Xrotation Zrotation
						JOINT Head
						{
							OFFSET 0.000000 9.000000 0.000000
							CHANNELS 3 Yrotation Xrotation Zrotation
							End Site
							{
								OFFSET 0.000000 18.000000 0.000000
							}
						}
					}
					JOINT RightShoulder
					{
						OFFSET -3.500000 8.061000 0.000000
						CHANNELS 3 Yrotation Xrotation Zrotation
						JOINT RightArm
						{
							OFFSET -14.000000 0.000000 0.000000
							CHANNELS 3 Yrotation Xrotation Zrotation
							JOINT RightForeArm
							{
								OFFSET -29.000000 0.000000 0.000000
								CHANNELS 3 Yrotation Xrotation Zrotation
								JOINT RightHand
								{
									OFFSET -28.000000 0.000000 0.000000
									CHANNELS 3 Yrotation Xrotation Zrotation
									End Site
									{
										OFFSET -3.672000 0.562000 0.822000
									}
								}
							}
						}
					}
					JOINT LeftShoulder
					{
						OFFSET 3.500000 8.061000 0.000000
						CHANNELS 3 Yrotation Xrotation Zrotation
						JOINT LeftArm
						{
							OFFSET 14.000000 0.000000 0.000000
							CHANNELS 3 Yrotation Xrotation Zrotation
							JOINT LeftForeArm
							{
								OFFSET 29.000000 0.000000 0.000000
								CHANNELS 3 Yrotation Xrotation Zrotation
								JOINT LeftHand
								{
									OFFSET 28.000000 0.000000 0.000000
									CHANNELS 3 Yrotation Xrotation Zrotation
									End Site
									{
										OFFSET 3.672000 0.562000 0.822000
									}
								}
							}
						}
					}
				}
			}
		}
	}
}
MOTION
Frames: 22
Frame Time: 0.041667
86.78 99.6 52.71 86.02 0.97 -6.93 -13.44 11.51 1.92 27.44 -10.12 -14.38 16.3 -0.51 -41.23 0.83 32.69 8.02 -17.72 -13.04 5.25 3.32 4.56 1.33 0.86 1.11 2.26 1.4 1.86 -0.02 0.44 -0.07 -0.02 0.44 -0.07 -0.45 7.86 -1.23 -11.63 5.82 -11.02 -14.12 20.02 63.41 51.71 5.14 49.39 5.77 6.28 4.83 -7.57 9.72 2.12 6.75 16.65 -55.12 -49.42 5.11 -41.94 -13.43 17.59 -7.35
87.78 99.67 52.85 86.15 1.24 -7.2 -13.25 11.88 2.15 27.11 -9.73 -13.09 16.42 -1.38 -40.21 0.9 32.24 7.0 -16.72 -8.08 5.19 3.14 4.67 1.32 0.81 1.14 2.23 1.32 1.9 -0.02 0.43 -0.07 -0.02 0.43 -0.07 -0.44 7.81 -1.22 -11.65 5.58 -11.19 -14.3 20.11 63.34 51.74 5.3 49.48 5.76 6.29 4.86 -7.57 9.64 2.06 6.9 16.71 -55.0 -49.45 5.08 -42.01 -13.39 17.5 -7.43
88.87 99.69 53.04 86.38 1.66 -7.45 -13.33 12.13 2.33 26.85 -9.14 -11.61 16.48 -2.78 -39.59 1.29 31.73 6.59 -15.41 -4.34 5.13 2.84 4.45 1.3 0.73 1.09 2.2 1.18 1.82 -0.01 0.41 -0.06 -0.01 0.41 -0.06 -0.31 7.33 -1.06 -11.74 5.38 -10.95 -14.43 20.32 63.42 51.84 5.5 49.25 5.72 6.19 4.9 -7.64 9.4 2.1 7.98 16.88 -54.82 -49.27 4.4 -42.46 -12.99 16.95 -8.15
90.3 99.38 53.23 86.74 2.04 -7.51 -13.51 11.98 2.26 27.88 -8.58 -10.63 16.71 -4.68 -38.27 1.57 29.96 6.83 -13.64 0.46 4.9 2.63 4.42 1.24 0.67 1.09 2.1 1.09 1.81 -0.01 0.4 -0.06 -0.01 0.4 -0.06 -0.29 7.28 -1.03 -11.76 5.15 -11.07 -14.49 20.43 63.56 51.75 5.62 49.07 5.71 6.2 5.02 -7.66 9.32 2.05 8.12 16.95 -54.74 -49.2 4.28 -42.48 -12.94 16.99 -8.23
91.77 99.4 53.35 87.04 2.22 -7.36 -13.67 12.33 1.89 27.9 -7.92 -8.53 16.77 -6.78 -37.78 1.68 29.84 7.82 -11.46 4.97 4.52 2.45 3.9 1.14 0.63 0.96 1.93 1.02 1.6 0.01 0.38 -0.04 0.01 0.38 -0.04 0.18 6.92 -0.7 -11.41 5.13 -10.72 -14.64 20.49 63.8 51.42 5.77 48.53 5.7 6.48 5.32 -7.27 9.07 2.19 8.75 17.26 -54.67 -48.71 3.16 -42.49 -12.65 18.29 -8.88
93.17 99.39 53.35 87.16 2.42 -6.88 -13.51 11.74 1.29 29.22 -7.49 -6.28 16.86 -8.63 -37.79 1.66 30.27 8.66 -8.22 6.27 4.4 2.35 3.56 1.11 0.6 0.87 1.87 0.98 1.46 0.02 0.38 -0.04 0.02 0.38 -0.04 0.24 6.9 -0.65 -11.38 5.02 -10.78 -14.85 20.37 63.89 51.2 6.05 48.43 5.73 6.62 5.45 -7.19 8.95 2.13 8.8 17.38 -54.55 -48.7 3.06 -42.46 -12.62 18.45 -8.98
94.59 99.35 53.28 87.23 2.75 -6.06 -12.72 10.3 0.61 31.6 -7.7 -3.68 17.14 -8.84 -37.89 0.76 30.47 8.44 -5.28 6.69 4.14 2.16 2.72 1.04 0.55 0.66 1.75 0.91 1.11 0.03 0.38 -0.02 0.03 0.38 -0.02 0.53 6.83 -0.29 -11.12 5.12 -10.42 -15.34 19.97 63.95 50.75 6.81 48.2 5.82 6.75 5.84 -6.71 8.63 2.17 8.86 17.86 -54.23 -48.72 2.23 -42.12 -12.28 18.93 -10.23
96.27 99.36 53.28 87.37 2.47 -5.21 -11.8 9.64 -0.17 33.66 -7.96 -0.13 17.42 -7.78 -37.39 -0.8 31.28 8.17 -4.06 7.82 4.05 2.35 2.2 1.02 0.6 0.53 1.71 1.01 0.9 0.03 0.38 -0.02 0.03 0.38 -0.02 0.53 6.84 -0.27 -11.18 5.14 -10.45 -15.73 19.65 63.95 50.51 7.42 48.33 5.88 6.65 6.02 -6.66 8.61 2.09 8.82 17.91 -54.13 -48.69 2.12 -42.08 -12.22 18.9 -10.39
97.9 99.48 53.37 87.33 2.02 -4.66 -11.15 8.98 -0.84 35.72 -7.54 4.44 17.24 -7.31 -36.48 -1.66 31.97 8.82 -3.74 8.11 4.03 2.67 1.81 1.01 0.69 0.44 1.7 1.16 0.73 0.03 0.37 -0.01 0.03 0.37 -0.01 0.52 6.79 -0.2 -11.11 5.08 -10.37 -16.3 19.2 63.95 50.4 7.99 48.82 5.3 5.86 6.19 -6.39 8.67 1.82 8.1 17.9 -54.21 -48.05 1.03 -41.73 -11.78 18.9 -11.41
99.93 99.62 53.63 87.04 2.2 -4.7 -10.83 7.34 -0.95 37.95 -6.5 9.64 16.53 -8.48 -36.38 -1.16 33.61 10.2 -4.26 7.64 4.19 2.58 1.81 1.05 0.67 0.44 1.77 1.12 0.73 0.03 0.37 -0.01 0.03 0.37 -0.01 0.52 6.77 -0.21 -11.1 5.04 -10.39 -16.5 18.95 63.99 50.28 8.24 48.99 5.05 5.42 6.32 -6.34 8.66 1.72 7.99 17.87 -54.17 -47.98 0.92 -41.69 -11.75 18.96 -11.47
101.43 99.81 54.47 86.67 2.36 -5.02 -10.69 5.28 -0.99 40.65 -5.15 14.61 15.63 -9.64 -36.39 -0.02 35.24 10.87 -5.27 7.31 4.19 2.7 1.91 1.05 0.7 0.46 1.77 1.17 0.77 0.05 0.36 -0.01 0.05 0.36 -0.01 0.82 6.57 -0.23 -10.72 4.69 -10.24 -16.35 18.71 64.17 48.62 9.46 48.08 6.43 5.11 7.29 -5.8 8.41 1.49 6.95 17.84 -54.47 -47.77 0.37 -41.17 -11.6 19.43 -11.74
102.66 99.94 55.47 86.32 2.13 -5.24 -10.39 3.61 -1.06 43.41 -4.14 19.03 15.13 -9.15 -36.04 0.63 36.73 10.52 -6.51 6.5 4.37 2.84 2.02 1.1 0.74 0.49 1.85 1.23 0.82 0.05 0.36 -0.01 0.05 0.36 -0.01 0.88 6.55 -0.21 -10.64 4.69 -10.21 -15.92 18.61 64.37 48.22 9.37 47.73 6.48 5.24 7.51 -5.7 8.41 1.45 6.83 17.79 -54.47 -47.81 0.34 -41.08 -11.58 19.43 -11.79
104.17 100.27 55.97 85.98 1.86 -5.28 -10.32 2.11 -1.28 46.79 -3.27 21.96 15.41 -7.77 -34.93 0.47 37.09 9.89 -7.46 6.24 4.01 3.28 1.78 1.01 0.85 0.42 1.7 1.43 0.71 0.09 0.35 -0.0 0.1 0.35 -0.0 1.73 6.4 0.05 -9.62 4.43 -9.77 -15.07 18.47 64.64 47.88 9.13 46.97 6.52 5.7 8.28 -4.72 8.18 1.63 6.06 17.68 -54.75 -48.32 0.11 -40.33 -11.41 19.36 -12.36
106.23 100.74 56.09 85.6 1.85 -5.26 -9.73 0.69 -1.29 49.66 -3.25 24.41 16.3 -6.81 -33.66 0.06 37.16 9.62 -8.64 6.81 4.16 3.3 1.72 1.05 0.86 0.41 1.76 1.44 0.69 0.1 0.35 -0.0 0.1 0.35 -0.0 1.84 6.4 0.09 -9.48 4.5 -9.68 -14.49 18.36 64.74 47.83 8.9 46.52 6.49 5.85 8.7 -4.63 8.17 1.63 6.03 17.65 -54.74 -48.36 0.06 -40.25 -11.39 19.38 -12.45
108.27 101.24 56.24 85.28 1.86 -5.19 -9.4 -0.71 -1.55 51.92 -3.68 26.25 16.64 -5.53 -32.26 -0.45 37.02 9.13 -9.93 7.48 3.73 3.38 1.41 0.94 0.87 0.33 1.58 1.47 0.56 0.15 0.36 0.01 0.15 0.36 0.01 2.71 6.64 0.36 -8.46 4.45 -9.25 -13.74 18.19 64.71 48.3 8.87 45.87 6.32 6.21 9.85 -3.39 8.09 1.78 5.32 17.42 -54.6 -48.54 -0.46 -39.86 -11.18 19.7 -13.13
110.15 101.58 56.21 85.08 1.77 -5.02 -9.5 -2.41 -2.09 54.73 -4.11 26.6 15.86 -4.03 -31.01 -1.22 37.04 8.38 -11.11 8.32 3.78 3.42 1.28 0.95 0.89 0.3 1.59 1.5 0.51 0.15 0.36 0.01 0.15 0.36 0.01 2.8 6.69 0.38 -8.4 4.43 -9.16 -13.38 18.04 64.57 48.47 8.83 45.65 6.22 6.41 10.39 -3.35 8.06 1.78 5.35 17.41 -54.58 -48.6 -0.34 -39.88 -11.2 19.59 -13.14
111.5 101.63 56.3 84.98 1.71 -4.8 -9.6 -4.03 -2.74 57.52 -3.98 24.97 14.42 -3.12 -30.51 -1.73 37.79 8.0 -12.19 8.68 3.28 3.38 1.05 0.82 0.87 0.24 1.38 1.47 0.41 0.19 0.39 0.01 0.19 0.39 0.01 3.48 7.22 0.46 -7.55 4.49 -9.02 -13.18 17.73 64.2 49.13 9.16 45.39 5.97 6.94 11.63 -2.85 8.06 1.79 5.47 17.12 -54.48 -48.62 -0.01 -40.07 -11.07 19.35 -13.15
112.71 101.67 56.44 84.9 1.85 -4.58 -9.63 -5.77 -3.24 59.9 -4.15 22.26 13.17 -2.74 -30.14 -2.06 38.23 7.97 -12.98 8.79 3.26 3.28 0.91 0.82 0.85 0.21 1.37 1.43 0.36 0.19 0.39 0.01 0.19 0.39 0.01 3.55 7.29 0.46 -7.48 4.43 -8.95 -13.27 17.45 63.83 49.3 9.35 45.51 5.87 7.18 12.14 -2.87 8.03 1.75 5.57 17.12 -54.46 -48.58 0.01 -40.08 -11.08 19.4 -13.18
114.08 101.84 56.5 84.85 2.12 -4.44 -9.8 -7.54 -3.56 61.92 -4.54 19.23 11.94 -2.81 -29.52 -2.25 38.11 8.26 -13.51 8.78 2.77 2.88 0.78 0.7 0.74 0.18 1.17 1.25 0.31 0.22 0.42 0.02 0.22 0.43 0.02 4.08 7.96 0.56 -6.71 4.69 -8.85 -13.69 16.95 63.17 49.75 9.9 45.72 5.68 7.68 13.17 -2.62 8.17 1.49 5.96 16.93 -54.43 -48.45 0.83 -40.26 -11.15 19.11 -13.03
115.52 102.07 56.58 84.84 2.36 -4.31 -10.1 -9.18 -3.7 63.48 -5.11 16.4 10.79 -2.98 -28.73 -2.41 37.77 8.54 -13.96 8.71 2.72 2.71 0.69 0.68 0.7 0.16 1.14 1.17 0.27 0.22 0.43 0.02 0.22 0.43 0.02 4.12 8.04 0.59 -6.69 4.66 -8.74 -14.06 16.56 62.74 49.83 10.22 46.04 5.62 7.87 13.55 -2.67 8.17 1.39 6.07 16.94 -54.38 -48.55 1.23 -40.47 -11.16 18.81 -12.73
117.05 102.32 56.72 84.93 2.57 -4.09 -10.38 -10.82 -3.68 64.72 -5.96 14.02 10.09 -3.21 -27.77 -2.63 37.3 8.81 -14.3 8.55 2.38 2.36 0.49 0.6 0.6 0.11 1.0 1.02 0.19 0.23 0.46 0.03 0.23 0.46 0.03 4.29 8.61 0.83 -6.37 4.93 -8.56 -14.6 16.02 62.22 49.85 10.67 46.3 5.56 8.24 14.3 -2.61 8.46 0.97 6.2 16.8 -54.39 -48.06 1.68 -40.09 -11.32 18.99 -13.12
118.61 102.6 56.92 85.06 2.77 -3.86 -10.6 -12.58 -3.52 65.72 -7.03 12.03 9.79 -3.33 -26.71 -2.84 36.64 8.79 -14.52 8.41 2.28 2.24 0.35 0.57 0.57 0.08 0.95 0.96 0.13 0.23 0.46 0.03 0.23 0.46 0.03 4.29 8.65 0.86 -6.46 4.9 -8.44 -14.86 15.7 61.99 49.73 10.9 46.47 5.54 8.4 14.62 -2.64 8.48 0.85 6.23 16.78 -54.32 -48.0 1.69 -40.03 -11.34 19.04 -13.18
